<?xml version="1.0" encoding="UTF-8" standalone="no"?>
<svg
   xmlns:dc="http://purl.org/dc/elements/1.1/"
   xmlns:cc="http://creativecommons.org/ns#"
   xmlns:rdf="http://www.w3.org/1999/02/22-rdf-syntax-ns#"
   xmlns:svg="http://www.w3.org/2000/svg"
   xmlns="http://www.w3.org/2000/svg"
   xmlns:sodipodi="http://sodipodi.sourceforge.net/DTD/sodipodi-0.dtd"
   xmlns:inkscape="http://www.inkscape.org/namespaces/inkscape"
   inkscape:export-ydpi="96"
   inkscape:export-xdpi="96"
   inkscape:export-filename="/Users/martinpouliot/Downloads/fsm.png"
   inkscape:version="1.1-dev (f9311a1, 2019-12-25)"
   sodipodi:docname="fsm.svg"
   id="svg86"
   version="1.1"
   height="600"
   width="800">
  <metadata
     id="metadata92">
    <rdf:RDF>
      <cc:Work
         rdf:about="">
        <dc:format>image/svg+xml</dc:format>
        <dc:type
           rdf:resource="http://purl.org/dc/dcmitype/StillImage" />
      </cc:Work>
    </rdf:RDF>
  </metadata>
  <defs
     id="defs90" />
  <sodipodi:namedview
     inkscape:current-layer="svg86"
     inkscape:window-maximized="1"
     inkscape:window-y="23"
     inkscape:window-x="0"
     inkscape:cy="199.59677"
     inkscape:cx="167.74194"
     inkscape:zoom="0.82666667"
     showgrid="false"
     id="namedview88"
     inkscape:window-height="704"
     inkscape:window-width="1280"
     inkscape:pageshadow="2"
     inkscape:pageopacity="0"
     guidetolerance="10"
     gridtolerance="10"
     objecttolerance="10"
     borderopacity="1"
     inkscape:document-rotation="0"
     bordercolor="#666666"
     pagecolor="#ffffff" />
  <ellipse
     id="ellipse10"
     ry="30"
     rx="30"
     cy="177.5"
     cx="119.5"
     fill="none"
     stroke-width="1"
     stroke="black" />
  <text
     id="text12"
     font-size="20"
     font-family="Times New Roman"
     y="183.5"
     x="110.5">s0</text>
  <ellipse
     id="ellipse14"
     ry="30"
     rx="30"
     cy="177.5"
     cx="236.5"
     fill="none"
     stroke-width="1"
     stroke="black" />
  <text
     id="text16"
     font-size="20"
     font-family="Times New Roman"
     y="183.5"
     x="227.5">s1</text>
  <ellipse
     id="ellipse18"
     ry="30"
     rx="30"
     cy="177.5"
     cx="495.5"
     fill="none"
     stroke-width="1"
     stroke="black" />
  <text
     id="text20"
     font-size="20"
     font-family="Times New Roman"
     y="183.5"
     x="486.5">s2</text>
  <ellipse
     id="ellipse22"
     ry="30"
     rx="30"
     cy="345.5"
     cx="323.5"
     fill="none"
     stroke-width="1"
     stroke="black" />
  <text
     id="text24"
     font-size="20"
     font-family="Times New Roman"
     y="351.5"
     x="314.5">s3</text>
  <path
     id="path26"
     d="M 93.632,162.539 A 22.5,22.5 0 1 1 115.64,147.867"
     fill="none"
     stroke-width="1"
     stroke="black" />
  <text
     id="text28"
     font-size="20"
     font-family="Times New Roman"
     y="112.5"
     x="30.5">&quot; &quot;|&quot;,&quot;</text>
  <polygon
     id="polygon30"
     points="115.64,147.867 120.958,140.075 110.966,139.672"
     stroke-width="1"
     fill="black" />
  <polygon
     id="polygon32"
     points="149.5,177.5 206.5,177.5"
     stroke-width="1"
     stroke="black" />
  <polygon
     id="polygon34"
     points="206.5,177.5 198.5,172.5 198.5,182.5"
     stroke-width="1"
     fill="black" />
  <text
     id="text36"
     font-size="20"
     font-family="Times New Roman"
     y="198.5"
     x="159.5">&quot;\w&quot;</text>
  <path
     id="path38"
     d="M 466.263,184.203 A 514.32,514.32 0 0 1 265.737,184.203"
     fill="none"
     stroke-width="1"
     stroke="black" />
  <polygon
     id="polygon40"
     points="466.263,184.203 457.442,180.858 459.391,190.666"
     stroke-width="1"
     fill="black" />
  <text
     id="text42"
     font-size="20"
     font-family="Times New Roman"
     y="215.5"
     x="350.5">&quot;\d&quot;|&quot;-&quot;|&quot;.&quot;</text>
  <path
     id="path44"
     d="M 300.723,326.013 A 215.285,215.285 0 0 1 239.271,207.347"
     fill="none"
     stroke-width="1"
     stroke="black" />
  <polygon
     id="polygon46"
     points="300.723,326.013 298.528,316.838 291.514,323.965"
     stroke-width="1"
     fill="black" />
  <text
     id="text48"
     font-size="20"
     font-family="Times New Roman"
     y="288.5"
     x="207.5">&quot; &quot;|&quot;,&quot;</text>
  <path
     id="path50"
     d="M 479.65,202.964 A 444.004,444.004 0 0 1 349.33,330.253"
     fill="none"
     stroke-width="1"
     stroke="black" />
  <polygon
     id="polygon52"
     points="479.65,202.964 471.042,206.825 479.348,212.393"
     stroke-width="1"
     fill="black" />
  <text
     id="text54"
     font-size="20"
     font-family="Times New Roman"
     y="294.5"
     x="426.5">&quot;\d&quot;|&quot;-&quot;|&quot;.&quot;</text>
  <path
     id="path56"
     d="M 515.83,155.598 A 22.5,22.5 0 1 1 525.25,180.314"
     fill="none"
     stroke-width="1"
     stroke="black" />
  <text
     id="text58"
     font-size="20"
     font-family="Times New Roman"
     y="151.5"
     x="566.5">&quot;\d&quot;|&quot;.&quot;</text>
  <polygon
     id="polygon60"
     points="525.25,180.314 531.667,187.229 534.278,177.576"
     stroke-width="1"
     fill="black" />
  <path
     id="path62"
     d="M 341.888,321.798 A 769.592,769.592 0 0 1 471.372,195.325"
     fill="none"
     stroke-width="1"
     stroke="black" />
  <polygon
     id="polygon64"
     points="341.888,321.798 350.804,318.715 343.024,312.433"
     stroke-width="1"
     fill="black" />
  <text
     id="text66"
     font-size="20"
     font-family="Times New Roman"
     y="245.5"
     x="351.5">&quot; &quot;|&quot;,&quot;</text>
  <path
     id="path68"
     d="M 315.328,374.244 A 22.5,22.5 0 1 1 295.715,356.498"
     fill="none"
     stroke-width="1"
     stroke="black" />
  <text
     id="text70"
     font-size="20"
     font-family="Times New Roman"
     y="416.5"
     x="226.5">&quot; &quot;|&quot;,&quot;</text>
  <polygon
     id="polygon72"
     points="295.715,356.498 286.858,353.249 288.913,363.036"
     stroke-width="1"
     fill="black" />
  <path
     id="path74"
     d="M 266.045,172.309 A 663.102,663.102 0 0 1 465.955,172.309"
     fill="none"
     stroke-width="1"
     stroke="black" />
  <polygon
     id="polygon76"
     points="266.045,172.309 274.707,176.046 273.2,166.16"
     stroke-width="1"
     fill="black" />
  <text
     id="text78"
     font-size="20"
     font-family="Times New Roman"
     y="155.5"
     x="347.5">&quot;\w&quot;</text>
  <path
     id="path80"
     d="M 258.262,198.122 A 245.498,245.498 0 0 1 319.216,315.826"
     fill="none"
     stroke-width="1"
     stroke="black" />
  <polygon
     id="polygon82"
     points="258.262,198.122 260.068,207.382 267.377,200.557"
     stroke-width="1"
     fill="black" />
  <text
     id="text84"
     font-size="20"
     font-family="Times New Roman"
     y="264.43549"
     x="302.29031">&quot;\w&quot;</text>
</svg>
